<mxfile host="Electron" agent="Mozilla/5.0 (Windows NT 10.0; Win64; x64) AppleWebKit/537.36 (KHTML, like Gecko) draw.io/27.0.2 Chrome/134.0.6998.205 Electron/35.3.0 Safari/537.36" version="27.0.2">
  <diagram name="Page-1" id="b5b7bab2-c9e2-2cf4-8b2a-24fd1a2a6d21">
    <mxGraphModel dx="2555" dy="2659" grid="1" gridSize="10" guides="1" tooltips="1" connect="1" arrows="1" fold="1" page="1" pageScale="1" pageWidth="827" pageHeight="1169" background="none" math="0" shadow="0">
      <root>
        <mxCell id="0" />
        <mxCell id="1" parent="0" />
        <mxCell id="hKqD1zcrkqQ63qjdDdON-36" value="" style="shape=folder;fontStyle=1;spacingTop=10;tabWidth=40;tabHeight=14;tabPosition=left;html=1;whiteSpace=wrap;" vertex="1" parent="1">
          <mxGeometry x="320" y="-105" width="1080" height="730" as="geometry" />
        </mxCell>
        <mxCell id="hKqD1zcrkqQ63qjdDdON-10" value="" style="group" vertex="1" connectable="0" parent="1">
          <mxGeometry x="690" y="40" width="781.25" height="1620" as="geometry" />
        </mxCell>
        <mxCell id="6e0c8c40b5770093-18" value="" style="group" parent="hKqD1zcrkqQ63qjdDdON-10" vertex="1" connectable="0">
          <mxGeometry x="-318.75" y="160" width="1100" height="1460" as="geometry" />
        </mxCell>
        <mxCell id="hKqD1zcrkqQ63qjdDdON-1" style="edgeStyle=orthogonalEdgeStyle;rounded=0;orthogonalLoop=1;jettySize=auto;html=1;exitX=0.5;exitY=1;exitDx=0;exitDy=0;exitPerimeter=0;" edge="1" parent="6e0c8c40b5770093-18">
          <mxGeometry relative="1" as="geometry">
            <mxPoint x="525.9499999999998" y="348.00999999999976" as="sourcePoint" />
            <mxPoint x="525.8928571428578" y="348.00999999999976" as="targetPoint" />
          </mxGeometry>
        </mxCell>
        <mxCell id="hKqD1zcrkqQ63qjdDdON-11" value="" style="shape=folder;fontStyle=1;spacingTop=10;tabWidth=123;tabHeight=24;tabPosition=left;html=1;rounded=0;shadow=0;comic=0;labelBackgroundColor=none;strokeWidth=1;fontFamily=Verdana;fontSize=10;align=center;" vertex="1" parent="hKqD1zcrkqQ63qjdDdON-10">
          <mxGeometry width="320" height="240" as="geometry" />
        </mxCell>
        <mxCell id="hKqD1zcrkqQ63qjdDdON-12" value="&lt;b&gt;Service Layer&lt;/b&gt;" style="text;html=1;align=center;verticalAlign=middle;whiteSpace=wrap;rounded=0;" vertex="1" parent="hKqD1zcrkqQ63qjdDdON-10">
          <mxGeometry x="76" y="42" width="137.14285714285714" height="39.99999999999999" as="geometry" />
        </mxCell>
        <mxCell id="hKqD1zcrkqQ63qjdDdON-13" value="" style="shape=folder;fontStyle=1;spacingTop=10;tabWidth=50;tabHeight=17;tabPosition=left;html=1;rounded=0;shadow=0;comic=0;labelBackgroundColor=none;strokeWidth=1;fontFamily=Verdana;fontSize=10;align=center;" vertex="1" parent="hKqD1zcrkqQ63qjdDdON-10">
          <mxGeometry x="53.14742857142856" y="81.9936" width="182.85714285714286" height="138.8064" as="geometry" />
        </mxCell>
        <mxCell id="6e0c8c40b5770093-22" value="Dify" style="shape=folder;fontStyle=1;spacingTop=10;tabWidth=50;tabHeight=17;tabPosition=left;html=1;rounded=0;shadow=0;comic=0;labelBackgroundColor=none;strokeWidth=1;fontFamily=Verdana;fontSize=10;align=center;" parent="hKqD1zcrkqQ63qjdDdON-10" vertex="1">
          <mxGeometry x="94.2902857142857" y="144" width="102.39999999999999" height="67.2" as="geometry" />
        </mxCell>
        <mxCell id="hKqD1zcrkqQ63qjdDdON-14" value="&lt;span style=&quot;font-family: Verdana; font-size: 10px; font-weight: 700; text-wrap-mode: nowrap;&quot;&gt;EmotionAnalysisService&lt;/span&gt;" style="text;html=1;align=center;verticalAlign=middle;whiteSpace=wrap;rounded=0;" vertex="1" parent="hKqD1zcrkqQ63qjdDdON-10">
          <mxGeometry x="90.63314285714284" y="107.52" width="109.71428571428571" height="28.799999999999997" as="geometry" />
        </mxCell>
        <mxCell id="6e0c8c40b5770093-67" style="edgeStyle=none;rounded=0;html=1;entryX=0;entryY=0;entryPerimeter=0;dashed=1;labelBackgroundColor=none;startFill=0;endArrow=open;endFill=0;endSize=10;fontFamily=Verdana;fontSize=10;exitX=0;exitY=0;exitDx=200;exitDy=93;exitPerimeter=0;entryDx=0;entryDy=132;" parent="1" source="hKqD1zcrkqQ63qjdDdON-4" target="hKqD1zcrkqQ63qjdDdON-11" edge="1">
          <mxGeometry relative="1" as="geometry">
            <mxPoint x="640.7088379673071" y="197.51" as="sourcePoint" />
            <mxPoint x="639.9999999999998" y="279.9999999999998" as="targetPoint" />
          </mxGeometry>
        </mxCell>
        <mxCell id="hKqD1zcrkqQ63qjdDdON-4" value="" style="shape=folder;fontStyle=1;spacingTop=10;tabWidth=80;tabHeight=26;tabPosition=left;html=1;rounded=0;shadow=0;comic=0;labelBackgroundColor=none;strokeWidth=1;fontFamily=Verdana;fontSize=10;align=center;" vertex="1" parent="1">
          <mxGeometry x="380" y="80" width="200" height="160" as="geometry" />
        </mxCell>
        <mxCell id="hKqD1zcrkqQ63qjdDdON-5" value="&lt;b&gt;Application Layer&lt;/b&gt;" style="text;html=1;align=center;verticalAlign=middle;whiteSpace=wrap;rounded=0;" vertex="1" parent="1">
          <mxGeometry x="420" y="125" width="120" height="30" as="geometry" />
        </mxCell>
        <mxCell id="6e0c8c40b5770093-17" value="UserInterface" style="shape=folder;fontStyle=1;spacingTop=10;tabWidth=50;tabHeight=17;tabPosition=left;html=1;rounded=0;shadow=0;comic=0;labelBackgroundColor=none;strokeWidth=1;fontFamily=Verdana;fontSize=10;align=center;" parent="1" vertex="1">
          <mxGeometry x="434.0014285714285" y="155" width="92" height="70" as="geometry" />
        </mxCell>
        <mxCell id="hKqD1zcrkqQ63qjdDdON-15" value="" style="shape=folder;fontStyle=1;spacingTop=10;tabWidth=80;tabHeight=26;tabPosition=left;html=1;rounded=0;shadow=0;comic=0;labelBackgroundColor=none;strokeWidth=1;fontFamily=Verdana;fontSize=10;align=center;" vertex="1" parent="1">
          <mxGeometry x="1070" y="370" width="200" height="160" as="geometry" />
        </mxCell>
        <mxCell id="hKqD1zcrkqQ63qjdDdON-9" value="&lt;b&gt;Data&amp;nbsp; Layer&lt;/b&gt;" style="text;html=1;align=center;verticalAlign=middle;whiteSpace=wrap;rounded=0;" vertex="1" parent="1">
          <mxGeometry x="1117" y="410" width="120" height="30" as="geometry" />
        </mxCell>
        <mxCell id="hKqD1zcrkqQ63qjdDdON-26" value="" style="shape=folder;fontStyle=1;spacingTop=10;tabWidth=80;tabHeight=26;tabPosition=left;html=1;rounded=0;shadow=0;comic=0;labelBackgroundColor=none;strokeWidth=1;fontFamily=Verdana;fontSize=10;align=center;" vertex="1" parent="1">
          <mxGeometry x="1110" y="80" width="200" height="160" as="geometry" />
        </mxCell>
        <mxCell id="hKqD1zcrkqQ63qjdDdON-22" value="DifyAPI" style="shape=folder;fontStyle=1;spacingTop=10;tabWidth=50;tabHeight=17;tabPosition=left;html=1;rounded=0;shadow=0;comic=0;labelBackgroundColor=none;strokeWidth=1;fontFamily=Verdana;fontSize=10;align=center;" vertex="1" parent="1">
          <mxGeometry x="1150" y="165" width="116" height="70" as="geometry" />
        </mxCell>
        <mxCell id="hKqD1zcrkqQ63qjdDdON-6" value="&lt;b&gt;Integration Layer&lt;/b&gt;" style="text;html=1;align=center;verticalAlign=middle;whiteSpace=wrap;rounded=0;" vertex="1" parent="1">
          <mxGeometry x="1150" y="125" width="120" height="30" as="geometry" />
        </mxCell>
        <mxCell id="hKqD1zcrkqQ63qjdDdON-27" value="" style="shape=folder;fontStyle=1;spacingTop=10;tabWidth=80;tabHeight=26;tabPosition=left;html=1;rounded=0;shadow=0;comic=0;labelBackgroundColor=none;strokeWidth=1;fontFamily=Verdana;fontSize=10;align=center;" vertex="1" parent="1">
          <mxGeometry x="500" y="370" width="200" height="160" as="geometry" />
        </mxCell>
        <mxCell id="hKqD1zcrkqQ63qjdDdON-28" value="&lt;b&gt;Utility Layer&lt;/b&gt;" style="text;html=1;align=center;verticalAlign=middle;whiteSpace=wrap;rounded=0;" vertex="1" parent="1">
          <mxGeometry x="540" y="405" width="120" height="30" as="geometry" />
        </mxCell>
        <mxCell id="hKqD1zcrkqQ63qjdDdON-29" value="Data Access" style="shape=folder;fontStyle=1;spacingTop=10;tabWidth=50;tabHeight=17;tabPosition=left;html=1;rounded=0;shadow=0;comic=0;labelBackgroundColor=none;strokeWidth=1;fontFamily=Verdana;fontSize=10;align=center;" vertex="1" parent="1">
          <mxGeometry x="1121" y="450" width="112" height="70" as="geometry" />
        </mxCell>
        <mxCell id="hKqD1zcrkqQ63qjdDdON-30" value="ErrorHandler" style="shape=folder;fontStyle=1;spacingTop=10;tabWidth=50;tabHeight=17;tabPosition=left;html=1;rounded=0;shadow=0;comic=0;labelBackgroundColor=none;strokeWidth=1;fontFamily=Verdana;fontSize=10;align=center;" vertex="1" parent="1">
          <mxGeometry x="548" y="440" width="112" height="70" as="geometry" />
        </mxCell>
        <mxCell id="hKqD1zcrkqQ63qjdDdON-31" style="edgeStyle=none;rounded=0;html=1;entryX=0;entryY=0;entryPerimeter=0;dashed=1;labelBackgroundColor=none;startFill=0;endArrow=open;endFill=0;endSize=10;fontFamily=Verdana;fontSize=10;exitX=0;exitY=0;exitDx=320;exitDy=132;exitPerimeter=0;entryDx=0;entryDy=93;" edge="1" parent="1" source="hKqD1zcrkqQ63qjdDdON-11" target="hKqD1zcrkqQ63qjdDdON-26">
          <mxGeometry relative="1" as="geometry">
            <mxPoint x="1060" y="296" as="sourcePoint" />
            <mxPoint x="1175" y="290" as="targetPoint" />
          </mxGeometry>
        </mxCell>
        <mxCell id="hKqD1zcrkqQ63qjdDdON-33" style="edgeStyle=none;rounded=0;html=1;entryX=0;entryY=0;entryPerimeter=0;dashed=1;labelBackgroundColor=none;startFill=0;endArrow=open;endFill=0;endSize=10;fontFamily=Verdana;fontSize=10;entryDx=200;entryDy=93;exitX=0;exitY=0;exitDx=0;exitDy=93;exitPerimeter=0;" edge="1" parent="1" source="hKqD1zcrkqQ63qjdDdON-15" target="hKqD1zcrkqQ63qjdDdON-27">
          <mxGeometry relative="1" as="geometry">
            <mxPoint x="1220" y="250" as="sourcePoint" />
            <mxPoint x="1220" y="406" as="targetPoint" />
          </mxGeometry>
        </mxCell>
        <mxCell id="hKqD1zcrkqQ63qjdDdON-34" value="&lt;font style=&quot;font-size: 48px;&quot;&gt;日記之森&lt;/font&gt;" style="text;html=1;align=center;verticalAlign=middle;whiteSpace=wrap;rounded=0;" vertex="1" parent="1">
          <mxGeometry x="750" y="-46" width="230" height="30" as="geometry" />
        </mxCell>
        <mxCell id="hKqD1zcrkqQ63qjdDdON-38" style="edgeStyle=none;rounded=0;html=1;dashed=1;labelBackgroundColor=none;startFill=0;endArrow=open;endFill=0;endSize=10;fontFamily=Verdana;fontSize=10;exitX=0.5;exitY=1;exitDx=0;exitDy=0;exitPerimeter=0;entryX=0;entryY=0;entryDx=140;entryDy=26;entryPerimeter=0;" edge="1" parent="1" source="hKqD1zcrkqQ63qjdDdON-26" target="hKqD1zcrkqQ63qjdDdON-15">
          <mxGeometry relative="1" as="geometry">
            <mxPoint x="1020" y="182" as="sourcePoint" />
            <mxPoint x="1210" y="390" as="targetPoint" />
          </mxGeometry>
        </mxCell>
      </root>
    </mxGraphModel>
  </diagram>
</mxfile>
